<?xml version="1.0" encoding="utf-8"?>
<!-- Generator: Adobe Illustrator 16.0.0, SVG Export Plug-In . SVG Version: 6.00 Build 0)  -->
<!DOCTYPE svg PUBLIC "-//W3C//DTD SVG 1.1//EN" "http://www.w3.org/Graphics/SVG/1.1/DTD/svg11.dtd">
<svg version="1.1" id="Layer_1" xmlns="http://www.w3.org/2000/svg" xmlns:xlink="http://www.w3.org/1999/xlink" x="0px" y="0px"
	 width="595.279px" height="841.89px" viewBox="0 0 595.279 841.89" enable-background="new 0 0 595.279 841.89"
	 xml:space="preserve">
<g display="none" opacity="0.15">
	<path display="inline" fill="#231F20" d="M583.741,570.968c0,7.131-5.834,12.965-12.965,12.965H26.442
		c-7.131,0-12.965-5.834-12.965-12.965V203.582c0-7.13,5.834-12.965,12.965-12.965h544.334c7.132,0,12.966,5.835,12.966,12.965
		V570.968z"/>
</g>
<path display="none" fill="#010101" d="M570.776,190.617H26.442c-7.131,0-12.965,5.835-12.965,12.965v328.073h570.265V203.582
	C583.741,196.452,577.907,190.617,570.776,190.617z"/>
<path fill="#010101" d="M35.099,531.655V209.573h528.952v322.082h19.69v-325.48c0-8.591-6.966-15.558-15.558-15.558H29.034
	c-8.592,0-15.558,6.967-15.558,15.558v325.48H35.099z"/>
<linearGradient id="SVGID_1_" gradientUnits="userSpaceOnUse" x1="592.0999" y1="308.1519" x2="21.8357" y2="308.1518" gradientTransform="matrix(1 0 0 -1 -8.3599 865.9443)">
	<stop  offset="0.0194" style="stop-color:#D9D9D9"/>
	<stop  offset="1" style="stop-color:#B3B3B3"/>
</linearGradient>
<path fill="url(#SVGID_1_)" d="M13.477,531.655v39.313c0,7.131,5.834,12.965,12.965,12.965h544.334
	c7.132,0,12.966-5.834,12.966-12.965v-39.313H13.477z"/>
<g>
	
		<linearGradient id="SVGID_2_" gradientUnits="userSpaceOnUse" x1="307.8772" y1="281.6973" x2="307.8772" y2="216.4409" gradientTransform="matrix(1 0 0 -1 -8.3599 865.9443)">
		<stop  offset="0" style="stop-color:#595959"/>
		<stop  offset="0.0514" style="stop-color:#5E5E5E"/>
		<stop  offset="0.1138" style="stop-color:#6D6D6D"/>
		<stop  offset="0.1819" style="stop-color:#868686"/>
		<stop  offset="0.254" style="stop-color:#A8A8A8"/>
		<stop  offset="0.3285" style="stop-color:#D4D4D4"/>
		<stop  offset="0.3558" style="stop-color:#E6E6E6"/>
		<stop  offset="0.546" style="stop-color:#737373"/>
		<stop  offset="0.6258" style="stop-color:#404040"/>
		<stop  offset="0.6994" style="stop-color:#A6A6A6"/>
		<stop  offset="0.816" style="stop-color:#D9D9D9"/>
		<stop  offset="1" style="stop-color:#8C8C8C"/>
	</linearGradient>
	<path fill="url(#SVGID_2_)" d="M237.32,584.247h122.297l4.324,31.115c0,0,1.837,8.754,5.617,12.534s19.34,15.018,22.472,18.15
		c3.132,3.132-16.421,3.456-16.421,3.456H224.787c0,0-21.284,0.109-17.719-3.456s19.122-14.37,22.904-18.15s3.89-13.831,3.89-13.831
		L237.32,584.247z"/>
	<g>
		
			<linearGradient id="SVGID_3_" gradientUnits="userSpaceOnUse" x1="381.3948" y1="214.8789" x2="365.8365" y2="227.4124" gradientTransform="matrix(1 0 0 -1 -8.3599 865.9443)">
			<stop  offset="0" style="stop-color:#FFFFFF"/>
			<stop  offset="1" style="stop-color:#FFFFFF;stop-opacity:0"/>
		</linearGradient>
		<path fill="url(#SVGID_3_)" d="M392.029,646.046c-3.131-3.133-18.69-14.37-22.471-18.15c-0.446-0.446-0.863-0.968-1.256-1.529
			l-23.136,23.136h30.441C375.609,649.502,395.16,649.178,392.029,646.046z"/>
	</g>
	<g>
		
			<linearGradient id="SVGID_4_" gradientUnits="userSpaceOnUse" x1="227.6106" y1="217.9722" x2="247.706" y2="226.7234" gradientTransform="matrix(1 0 0 -1 -8.3599 865.9443)">
			<stop  offset="0" style="stop-color:#FFFFFF"/>
			<stop  offset="1" style="stop-color:#FFFFFF;stop-opacity:0"/>
		</linearGradient>
		<path fill="url(#SVGID_4_)" d="M207.006,646.046c3.133-3.133,18.691-14.37,22.472-18.15c0.445-0.446,0.863-0.968,1.255-1.529
			l23.136,23.136h-30.439C223.427,649.502,203.874,649.178,207.006,646.046z"/>
	</g>
	
		<linearGradient id="SVGID_5_" gradientUnits="userSpaceOnUse" x1="307.8362" y1="218.1553" x2="307.8362" y2="213.8486" gradientTransform="matrix(1 0 0 -1 -8.3599 865.9443)">
		<stop  offset="0.3865" style="stop-color:#FFFFFF;stop-opacity:0.15"/>
		<stop  offset="1" style="stop-color:#231F20"/>
	</linearGradient>
	<path fill="url(#SVGID_5_)" d="M391.102,647.789c-3.897,1.519-15.493,1.714-15.493,1.714H224.787c0,0-12.918,0.066-16.939-1.593
		c-0.298,0.266,2.05,2.963,2.354,2.998c10.371,1.188,14.585,1.188,14.585,1.188h150.82c0,0,7.992-0.754,12.421-1.512
		C388.36,650.528,391.467,648.107,391.102,647.789z"/>
	
		<linearGradient id="SVGID_6_" gradientUnits="userSpaceOnUse" x1="216.136" y1="216.0024" x2="399.5071" y2="216.0024" gradientTransform="matrix(1 0 0 -1 -8.3599 865.9443)">
		<stop  offset="0" style="stop-color:#262626"/>
		<stop  offset="0.2" style="stop-color:#FFFFFF;stop-opacity:0.15"/>
		<stop  offset="0.8" style="stop-color:#D9D9D9;stop-opacity:0.15"/>
		<stop  offset="1" style="stop-color:#262626"/>
	</linearGradient>
	<path fill="url(#SVGID_6_)" d="M391.102,647.789c-3.897,1.519-15.493,1.714-15.493,1.714H224.787c0,0-12.918,0.066-16.939-1.593
		c-0.298,0.266,0.272,2.267,2.786,2.998c5.753,0.973,4.07,0.396,14.153,1.188h150.82c0,0,10.369-0.539,13.61-2.16
		C389.516,649.787,391.467,648.107,391.102,647.789z"/>
	<path opacity="0.85" fill="#FFFFFF" enable-background="new    " d="M390.94,647.705c-3.897,0.491-15.493,0.558-15.493,0.558
		H224.625c0,0-12.918,0.02-16.938-0.515c-0.299,0.084,0.271,0.732,2.785,0.968c5.753,0.313,4.016,0.534,14.099,0.79l150.819,0.053
		c0,0,10.427-0.633,13.668-1.159C389.355,648.35,391.305,647.808,390.94,647.705z"/>
</g>
<linearGradient id="SVGID_7_" gradientUnits="userSpaceOnUse" x1="307.9348" y1="656.3706" x2="307.9348" y2="651.1851" gradientTransform="matrix(1 0 0 -1 -8.3599 865.9443)">
	<stop  offset="0" style="stop-color:#FFFFFF"/>
	<stop  offset="1" style="stop-color:#B2B4B6"/>
</linearGradient>
<rect x="35.099" y="209.574" opacity="0.85" fill="url(#SVGID_7_)" enable-background="new    " width="528.952" height="5.187"/>
<linearGradient id="SVGID_8_" gradientUnits="userSpaceOnUse" x1="450.4368" y1="675.3276" x2="450.4368" y2="334.2896" gradientTransform="matrix(1 0 0 -1 -8.3599 865.9443)">
	<stop  offset="0" style="stop-color:#FFFFFF"/>
	<stop  offset="0.681" style="stop-color:#FFFFFF;stop-opacity:0"/>
</linearGradient>
<path opacity="0.5" fill="url(#SVGID_8_)" enable-background="new    " d="M570.776,190.617h-97.935L300.413,531.655h283.328
	V203.582C583.741,196.452,577.907,190.617,570.776,190.617z"/>
<rect x="35.099" y="209.573" display="none" fill="#45ABE0" width="528.952" height="299.479"/>
<rect x="13.477" y="507.756" fill="#010101" width="570.265" height="23.898"/>
</svg>
